<?xml version="1.0" encoding="UTF-8" standalone="no"?>
<svg
   data-name="Layer 1"
   id="Layer_1"
   viewBox="0 0 64 64"
   version="1.1"
   sodipodi:docname="iconfinder_5740566_avoid_market_seafood_shop_icon.svg"
   inkscape:version="1.1 (c68e22c387, 2021-05-23)"
   xmlns:inkscape="http://www.inkscape.org/namespaces/inkscape"
   xmlns:sodipodi="http://sodipodi.sourceforge.net/DTD/sodipodi-0.dtd"
   xmlns="http://www.w3.org/2000/svg"
   xmlns:svg="http://www.w3.org/2000/svg">
  <sodipodi:namedview
     id="namedview57"
     pagecolor="#ffffff"
     bordercolor="#666666"
     borderopacity="1.0"
     inkscape:pageshadow="2"
     inkscape:pageopacity="0.0"
     inkscape:pagecheckerboard="0"
     showgrid="false"
     showguides="true"
     inkscape:guide-bbox="true"
     inkscape:zoom="5.6568543"
     inkscape:cx="26.604893"
     inkscape:cy="55.06594"
     inkscape:window-width="2560"
     inkscape:window-height="1017"
     inkscape:window-x="-8"
     inkscape:window-y="-8"
     inkscape:window-maximized="1"
     inkscape:current-layer="Layer_1" />
  <defs
     id="defs4">
    <style
       id="style2">.cls-1{fill:#d7e6f9;}.cls-2{fill:#ccd3dd;}.cls-3{fill:#f95555;}.cls-4{fill:#d81d1d;}.cls-5{fill:#ffce62;}.cls-6{fill:#f4a519;}</style>
  </defs>
  <title
     id="title6" />
  <rect
     class="cls-1"
     height="30"
     width="40"
     x="12"
     y="26"
     id="rect8" />
  <path
     class="cls-2"
     d="M12,26H52V56H49c0-2.5-2-2.5-2-5s2-2.5,2-5-2-2.5-2-5,2-2.5,2-5,.483-2.752-1.57-4.176C44.47,29.768,44.4,30,40.8,30s-3.6,2-7.2,2-3.6-2-7.2-2-3.6,2-7.194,2-3.6-2-7.2-2Z"
     id="path10" />
  <polygon
     class="cls-3"
     points="50 8 14 8 8 22 56 22 50 8"
     id="polygon12" />
  <path
     class="cls-4"
     d="M56,22,50,8H14l-.345.8c3.136,0,4.117,1.2,7.252,1.2s3.133-2,6.267-2,3.136,2,6.272,2,3.139-2,6.277-2S42.706,9,45.7,9.953c1.2.381,1.718-.191,2.213.965s-1.343,1.944-.847,3.1,2.334.368,2.829,1.525-1.742,2.219-.845,3.1c.953.941,3.438.923,1.882,3.352Z"
     id="path14" />
  <path
     class="cls-3"
     d="M8,22h8a0,0,0,0,1,0,0v4a4,4,0,0,1-4,4h0a4,4,0,0,1-4-4V22A0,0,0,0,1,8,22Z"
     id="path16" />
  <path
     class="cls-5"
     d="M16,22h8a0,0,0,0,1,0,0v4a4,4,0,0,1-4,4h0a4,4,0,0,1-4-4V22a0,0,0,0,1,0,0Z"
     id="path18" />
  <path
     class="cls-3"
     d="M24,22h8a0,0,0,0,1,0,0v4a4,4,0,0,1-4,4h0a4,4,0,0,1-4-4V22A0,0,0,0,1,24,22Z"
     id="path20" />
  <path
     class="cls-5"
     d="M32,22h8a0,0,0,0,1,0,0v4a4,4,0,0,1-4,4h0a4,4,0,0,1-4-4V22A0,0,0,0,1,32,22Z"
     id="path22" />
  <path
     class="cls-3"
     d="M40,22h8a0,0,0,0,1,0,0v4a4,4,0,0,1-4,4h0a4,4,0,0,1-4-4V22A0,0,0,0,1,40,22Z"
     id="path24" />
  <path
     class="cls-5"
     d="M48,22h8a0,0,0,0,1,0,0v4a4,4,0,0,1-4,4h0a4,4,0,0,1-4-4V22A0,0,0,0,1,48,22Z"
     id="path26" />
  <path
     class="cls-6"
     d="M48,22v1h2a2,2,0,0,1,2,2v2a3.984,3.984,0,0,1-1.156,2.81,3.346,3.346,0,0,0,2.977-.372A4.784,4.784,0,0,0,56,25.364V22Z"
     id="path28" />
  <path
     class="cls-4"
     d="M40,22v1h2a2,2,0,0,1,2,2v2a3.984,3.984,0,0,1-1.156,2.81,3.346,3.346,0,0,0,2.977-.372A4.784,4.784,0,0,0,48,25.364V22Z"
     id="path30" />
  <path
     class="cls-6"
     d="M32,22v1h2a2,2,0,0,1,2,2v2a3.984,3.984,0,0,1-1.156,2.81,3.346,3.346,0,0,0,2.977-.372A4.784,4.784,0,0,0,40,25.364V22Z"
     id="path32" />
  <path
     class="cls-4"
     d="M24,22v1h2a2,2,0,0,1,2,2v2a3.984,3.984,0,0,1-1.156,2.81,3.346,3.346,0,0,0,2.977-.372A4.784,4.784,0,0,0,32,25.364V22Z"
     id="path34" />
  <path
     class="cls-6"
     d="M16,22v1h2a2,2,0,0,1,2,2v2a3.984,3.984,0,0,1-1.156,2.81,3.346,3.346,0,0,0,2.977-.372A4.784,4.784,0,0,0,24,25.364V22Z"
     id="path36" />
  <path
     class="cls-4"
     d="M8,22v1h2a2,2,0,0,1,2,2v2a3.984,3.984,0,0,1-1.156,2.81,3.346,3.346,0,0,0,2.977-.372A4.784,4.784,0,0,0,16,25.364V22Z"
     id="path38" />
  <rect
     class="cls-3"
     height="4"
     width="36"
     x="14"
     y="4"
     id="rect40" />
  <rect
     class="cls-3"
     height="4"
     width="48"
     x="8"
     y="56"
     id="rect42" />
  <path
     d="M57,26V22a.99.99,0,0,0-.081-.393h0L51,7.8V4a1,1,0,0,0-1-1H14a1,1,0,0,0-1,1V7.8L7.081,21.606h0A1.008,1.008,0,0,0,7,22v4a5.009,5.009,0,0,0,4,4.9V55H8a1,1,0,0,0-1,1v4a1,1,0,0,0,1,1H56a1,1,0,0,0,1-1V56a1,1,0,0,0-1-1H53V30.9A5.009,5.009,0,0,0,57,26Zm-2,0a3,3,0,0,1-6,0V23h6ZM15,5H49V7H15Zm-.341,4H49.341l5.142,12H9.517ZM47,23v3a3,3,0,0,1-6,0V23Zm-8,0v3a3,3,0,0,1-6,0V23Zm-8,0v3a3,3,0,0,1-6,0V23Zm-8,0v3a3,3,0,0,1-6,0V23ZM9,26V23h6v3a3,3,0,0,1-6,0ZM55,59H9V57H55ZM13,55V30.89a5.011,5.011,0,0,0,3-1.921,4.954,4.954,0,0,0,8,0,4.954,4.954,0,0,0,8,0,4.954,4.954,0,0,0,8,0,4.954,4.954,0,0,0,8,0,5.011,5.011,0,0,0,3,1.921V55Z"
     id="path54" />
  <rect
     style="fill:#c87137;stroke:#000000;stroke-width:0.981385"
     id="rect1296"
     width="12.263744"
     height="13.571438"
     x="25.868128"
     y="41.92041" />
</svg>
